<svg width="166" height="154" xmlns="http://www.w3.org/2000/svg"><g fill="none" fill-rule="evenodd"><g fill="#EFEFEF"><path d="M101.995 9.706l42.47 2.97.477.037.466.038.896.081.849.088.806.094.765.102.185.027.183.027.71.115c3.11.535 5.178 1.344 7.263 2.654a16.563 16.563 0 016.382 7.342c1.033 2.304 1.546 4.517 1.624 7.804l.009.477.001.753-.002.194-.002.197-.019.811-.032.854-.01.22-.01.223-.051.921-.03.479-.033.49-2.945 42.106-.072.97-.019.234-.02.23-.08.896-.088.85-.094.806-.025.195-.025.192-.106.746c-.533 3.513-1.362 5.733-2.77 7.973a16.563 16.563 0 01-7.341 6.382c-2.22.995-4.354 1.508-7.446 1.614l-.471.013-.736.008-.772-.006-.811-.018-.853-.032-.22-.01-.224-.01-.92-.051-.97-.064-41.979-2.935-.969-.072-.234-.02-.232-.018-.895-.081-.85-.088-.806-.094-.765-.102-.185-.027-.183-.028-.709-.114c-3.11-.536-5.178-1.344-7.264-2.654a16.542 16.542 0 01-5.319-5.335l.098-.017c.718-.129 1.382-.27 2.004-.426a14.47 14.47 0 003.927 3.855l.354.229.32.198.324.19.187.105c-.28-.157-.555-.321-.829-.493a14.575 14.575 0 01-4.283-4.084l.027-.007.616-.164c1.706-.479 3.097-1.089 4.442-1.892l.474-.292.236-.152a17.075 17.075 0 006.447-7.683c.739-1.729 1.2-3.404 1.406-5.48l.054-.634c.04-.54.063-1.108.071-1.71l.002-.74c0-.127-.002-.255-.004-.384l-.02-.796-.033-.836-.048-.879-.062-.924a91.797 91.797 0 00-.036-.48l-.083-1-3.793-43.347c-.03-.341-.06-.674-.091-.998l-.097-.946a76.088 76.088 0 00-.05-.455l-.106-.874-.112-.829-.12-.787-.126-.747a26.723 26.723 0 00-.754-3.18c.24-.122.486-.24.735-.351 2.22-.995 4.355-1.508 7.447-1.614l.47-.013.736-.008.772.006.811.018.854.032.22.01.223.01.921.051c.315.02.638.04.97.064zm41.839 4.93L101.85 11.7l23.233 1.627c4.458 17.886 6.232 33.326 5.323 46.32l-8.84-.618c-.49 13.686-2.539 26.06-6.147 37.124l22.603 1.58.886.058.839.047.794.035.752.025.712.013.674.004.162-.001.16-.002.62-.012.588-.023.556-.032.527-.042c.285-.026.558-.056.82-.091l.386-.055.444-.075.424-.083.406-.092.1-.025.098-.024.385-.105.373-.113.183-.06.18-.061.356-.129.35-.136.346-.144.345-.151a14.546 14.546 0 006.237-5.267l.23-.354.1-.16.193-.322.187-.325.18-.33.174-.339.167-.348.16-.36.155-.373.148-.39.036-.1.035-.102.139-.418.033-.108.034-.11.13-.45.03-.117.032-.118.12-.488.03-.127.029-.128.112-.531.107-.562.025-.146.026-.147.098-.613.094-.648.088-.687.082-.727.078-.77.073-.814.069-.86 3.007-43.004.052-.862.041-.816.03-.773.019-.732.008-.692-.002-.655-.012-.62-.005-.15-.005-.148-.027-.571-.037-.542-.011-.13-.012-.13-.051-.5-.015-.122-.015-.12-.065-.464-.018-.113-.018-.111-.08-.434-.02-.105-.022-.104-.092-.407-.1-.392-.11-.379-.116-.367-.125-.36-.133-.352-.14-.348-.147-.345-.077-.173a14.546 14.546 0 00-5.267-6.237l-.354-.23-.32-.197-.324-.19-.327-.184-.083-.045-.083-.044-.338-.174-.173-.084-.354-.164-.366-.157-.094-.039-.095-.038-.39-.147-.408-.142-.429-.135a18.666 18.666 0 00-.765-.213l-.41-.1-.516-.115-.546-.11-.578-.104-.15-.025-.152-.025-.63-.095-.667-.09-.707-.086-.748-.08-.792-.076-.837-.07-.885-.067zm-33.982 8.006a1.773 1.773 0 00-1.876 1.5l-.016.145-.436 6.239a1.773 1.773 0 003.521.392l.016-.145.436-6.239a1.773 1.773 0 00-1.645-1.892z"/><path d="M20.928 4.036L63.466.316c.323-.028.637-.052.944-.074l.897-.06.853-.047.81-.033.772-.019.736-.004.701.009c1.371.033 2.555.152 3.647.362l.538.113c1.064.24 2.052.574 3.058 1.004a16.563 16.563 0 017.453 6.253c1.396 2.138 2.252 4.268 2.845 7.565l.123.725.115.764.109.804.102.848.049.44.094.918c.03.315.06.637.089.968L91.08 62.9l.08.968.035.466.06.897.047.853.032.81.02.772.003.373-.002.718c-.008.584-.03 1.135-.068 1.658l-.053.616a17.303 17.303 0 01-1.364 5.315 16.563 16.563 0 01-6.483 7.6l-.459.283c-1.305.78-2.654 1.37-4.309 1.836l-.597.159c-.611.154-1.264.293-1.97.42l-.726.123-.376.058-.784.112-.826.105-.87.1a84.9 84.9 0 01-.918.094l-.968.089-42.047 3.679-.49.041-.945.074-.454.032-.874.053-.832.04-.4.014-.772.02-.372.003-.718-.002a28.194 28.194 0 01-1.659-.068l-.616-.053c-1.71-.17-3.141-.519-4.562-1.06l-.501-.199-.252-.105a16.563 16.563 0 01-7.452-6.253 20.23 20.23 0 01-.43-.689l-.268-.463a17.292 17.292 0 01-1.568-3.846l-.16-.597a29.165 29.165 0 01-.42-1.97l-.122-.726-.115-.763-.109-.804-.102-.848a73.806 73.806 0 01-.05-.441l-.093-.918-.09-.968L.434 28.461l-.08-.969a89.027 89.027 0 01-.035-.466l-.06-.897-.047-.852-.033-.811-.019-.772-.004-.372.003-.718c.034-2.572.356-4.488.997-6.335l.183-.502c.096-.25.197-.501.305-.753a16.563 16.563 0 016.253-7.452 17.498 17.498 0 012.837-1.52l.511-.204c1.039-.397 2.184-.72 3.528-.99l.69-.131.724-.123.764-.115.804-.109.848-.102.44-.05.918-.093.968-.09zm64.033 13.029l.098.705.094.746.089.79.085.837.081.884 3.717 42.495.068.861.055.816.043.772.032.732.02.692.007.332.004.637-.007.569a30.39 30.39 0 01-.004.175l.004-.14-.008.29-.022.556-.033.528-.028.346a20.432 20.432 0 01-.097.862l-.067.445-.067.377-.05.254-.09.401-.098.387-.106.375-.098.312c-.162.5-.347.978-.552 1.459a14.563 14.563 0 01-5.508 6.563c-1.353.883-2.717 1.573-4.832 2.118l-.343.085c-.257.062-.525.122-.805.18l-.284.059-.378.071c-.27.05-.551.099-.843.146l-.328.053-.685.1-.726.095-.768.092-.813.087-.86.083-18.594 1.626v.002l18.146-1.588a67.06 67.06 0 004.3-.498l.165-.025.163-.026.24-.04.155-.027.233-.04.215-.04.378-.072.143-.028.141-.029.544-.119.261-.061.253-.064.09-.022.157-.04c.324-.087.63-.177.922-.27l.426-.143.175-.063.06-.023.171-.063.196-.076.13-.054.123-.05.126-.054.364-.163.35-.17.122-.063.099-.051.12-.063.33-.182.094-.055.138-.08.092-.055.32-.196.317-.203a14.563 14.563 0 005.508-6.564l.145-.347.137-.35.13-.351.123-.358.017-.053a14 14 0 00.391-1.475l.021-.102.02-.104.01-.048a17.13 17.13 0 00.221-1.586l.003-.025.007-.073c.043-.488.073-1.011.087-1.58l.004-.14v-.035c.031-1.56-.05-3.454-.26-5.86l-3.679-42.046c-.158-1.817-.34-3.335-.549-4.628l.102.666zm-27.758-3.751a1.787 1.787 0 00-1.632 1.79l.007.146.543 6.202a1.787 1.787 0 003.567-.165l-.006-.147-.543-6.202a1.787 1.787 0 00-1.936-1.624zm10.6-11.227l-.182.003a65.916 65.916 0 00-4.471.26L41.256 4.264l-.001.002-20.6 1.802-.86.084-.813.087-.768.091-.726.096-.685.1-.647.104a35.4 35.4 0 00-.61.11l-.576.113-.545.12-.514.123c-.417.106-.804.217-1.169.334l-.426.143-.405.148-.196.077-.38.157c-.123.054-.244.108-.363.164l-.35.17-.34.176-.332.183-.324.19-.32.196-.317.203A14.563 14.563 0 003.482 15.8l-.145.348-.138.349-.13.352-.123.358-.114.365-.107.375-.098.387-.089.4-.041.206-.076.426-.067.444c-.052.38-.094.78-.125 1.209l-.033.528-.023.557-.012.587-.002.306.004.637.006.332.02.692.032.731.044.773.055.815.067.861 3.717 42.496.082.884.085.836.09.79.093.747.097.705.103.666.052.318.11.61.113.577.12.544.123.515c.106.416.217.804.334 1.168l.143.426.148.406.077.196.157.379.164.364.17.35.176.34.183.331.19.324.196.32.203.317a14.563 14.563 0 006.563 5.508l.348.145.349.137.352.13.358.123.365.115.375.106.387.098.4.09.206.04.426.077.444.067c.303.041.62.076.955.105l.514.038.268.015.557.022.29.008.603.007.314-.001.655-.01.692-.02.731-.032.773-.043.815-.055.861-.068 24.35-2.131-.32-.921c-3.49-10.193-5.655-21.748-6.494-34.666l-.073-1.178-10.741.94c-1.193-13.631 1.01-29.227 6.607-46.787l.012-.04L63.15 2.349l.885-.073.838-.061.794-.05.751-.037.711-.026.492-.012.182-.003.323-.003-.323.003z"/></g><path d="M8.16 117.373c1.443 0 3.022-.565 3.88-1.54.253-.273.311-.487.311-.78 0-.565-.448-1.014-1.013-1.014-.43 0-.644.156-1.034.488-.584.507-1.208.858-2.105.858-1.715 0-2.807-1.521-2.807-3.938 0-2.418 1.092-3.919 2.807-3.919.897 0 1.52.351 2.105.858.39.332.605.488 1.034.488.565 0 1.013-.449 1.013-1.014 0-.293-.058-.507-.312-.78-.857-.975-2.436-1.54-3.879-1.54-3.08 0-5.01 2.34-5.01 5.907s1.93 5.926 5.01 5.926zm11.365 0c3.217 0 4.796-2.67 4.796-5.926 0-3.256-1.58-5.907-4.796-5.907-3.197 0-4.776 2.651-4.776 5.907 0 3.255 1.58 5.926 4.776 5.926zm0-1.988c-1.793 0-2.534-1.872-2.534-3.938 0-2.067.74-3.919 2.534-3.919 1.794 0 2.554 1.852 2.554 3.919 0 2.066-.76 3.938-2.554 3.938zm14.874 1.988c.604 0 1.033-.41 1.033-1.17v-9.493c0-.76-.487-1.17-1.091-1.17-.605 0-1.073.41-1.073 1.17v6.355l-3.957-6.59c-.331-.545-.604-.935-1.228-.935-.604 0-1.033.429-1.033 1.19v9.473c0 .76.487 1.17 1.091 1.17.605 0 1.073-.41 1.073-1.17v-6.257l3.957 6.491c.331.546.604.936 1.228.936zm8.538 0c.605 0 1.092-.41 1.092-1.17v-8.44c.76.019 1.988.077 2.73.077.818 0 1.247-.39 1.247-1.013 0-.644-.468-1.014-1.248-1.014h-7.641c-.78 0-1.229.37-1.229 1.014 0 .623.41 1.013 1.229 1.013.74 0 1.988-.058 2.748-.078v8.441c0 .76.468 1.17 1.072 1.17zm14.972 0c.624 0 1.072-.41 1.072-1.014 0-.41-.156-.682-.41-1.033l-2.007-2.749c1.735-.584 2.417-1.852 2.417-3.255 0-2.222-1.657-3.509-4.542-3.509h-2.69c-.624 0-1.092.41-1.092 1.15v9.24c0 .76.468 1.17 1.072 1.17.605 0 1.092-.41 1.092-1.17v-3.294h1.364l2.574 3.684c.331.468.682.78 1.15.78zm-3.373-6.316h-1.715v-3.295h1.793c1.287 0 2.125.546 2.125 1.657 0 1.092-.897 1.638-2.203 1.638zm14.894 6.316c.604 0 1.072-.41 1.072-1.17v-6.296c0-2.749-1.56-4.367-4.172-4.367-2.592 0-4.171 1.618-4.171 4.367v6.296c0 .76.487 1.17 1.091 1.17s1.072-.41 1.072-1.17v-2.612h4.016v2.612c0 .76.487 1.17 1.092 1.17zm-1.092-5.731h-4.016v-1.326c0-1.735.488-2.788 2.008-2.788 1.56 0 2.008 1.053 2.008 2.788v1.326z" fill="#EFEFEF" fill-rule="nonzero"/><path d="M10.39 153.155c.419 0 .746-.291.746-.82v-6.114c0-2.494-1.274-4.023-3.676-4.023s-3.676 1.53-3.676 4.023v6.115c0 .528.327.819.764.819.419 0 .746-.291.746-.82v-2.875h4.332v2.876c0 .528.327.819.764.819zm-.764-5.042H5.294v-1.729c0-1.801.619-2.82 2.166-2.82 1.565 0 2.166 1.019 2.166 2.82v1.73zm19.62 5.042c2.256 0 4.13-1.074 4.13-3.203 0-1.966-1.583-2.567-3.93-3.149-1.329-.328-2.512-.692-2.512-1.747 0-.856.819-1.456 2.166-1.456.91 0 1.674.273 2.366.728.273.182.473.31.764.31.4 0 .674-.31.674-.71 0-.383-.219-.601-.601-.838-.783-.564-1.947-.892-3.149-.892-2.056 0-3.785 1.056-3.785 2.876 0 1.911 1.51 2.657 3.785 3.185 1.62.382 2.658.783 2.658 1.802 0 1.11-1.183 1.692-2.53 1.692-.928 0-1.747-.273-2.403-.728-.4-.29-.618-.436-.946-.436-.382 0-.71.29-.71.673 0 .455.31.728.82 1.056.764.473 1.856.837 3.202.837zm13.376 0c.383 0 .656-.273.728-.71l1.638-8.973.045-.364c.006-.06.01-.12.01-.182 0-.382-.255-.728-.728-.728-.437 0-.692.328-.783.874l-1.183 7.17-1.437-4.367c-.11-.364-.328-.583-.674-.583-.346 0-.564.219-.673.583l-1.438 4.368-1.183-7.171c-.091-.546-.346-.874-.783-.874-.473 0-.728.346-.728.728 0 .182.037.364.055.546l1.638 8.973c.073.437.346.71.728.71.4 0 .655-.255.783-.619l1.601-4.805 1.602 4.805c.127.364.382.619.782.619zm11.466-.255c.546 0 .838-.291.838-.71 0-.418-.273-.71-.838-.71-.51 0-1.583.055-2.165.073V143.8c.582.018 1.656.073 2.165.073.565 0 .838-.31.838-.728 0-.419-.292-.692-.838-.692h-5.86c-.546 0-.837.273-.837.692 0 .418.273.728.837.728.51 0 1.62-.055 2.184-.073v7.753c-.564-.018-1.674-.073-2.184-.073-.564 0-.837.292-.837.71 0 .419.291.71.837.71h5.86zm5.278.255c.437 0 .765-.291.765-.82v-3.475l1.023.012.531.006c.795.009 1.56.015 2.044.017l.278.001c.565 0 .838-.291.838-.71 0-.4-.273-.691-.838-.691-.655 0-2.511.036-3.876.054V143.8c1.365.018 4.313.073 5.26.073.564 0 .837-.31.837-.728 0-.419-.291-.692-.837-.692h-5.988c-.455 0-.783.291-.783.783v9.1c0 .528.328.819.746.819zm13.632 0c.437 0 .765-.291.765-.82V143.8c.71.018 2.311.073 2.984.073.546 0 .838-.31.838-.728 0-.419-.292-.692-.838-.692h-7.48c-.546 0-.837.273-.837.692 0 .418.273.728.837.728.674 0 2.293-.055 2.985-.073v8.536c0 .528.31.819.746.819zm19.165 0c.437 0 .764-.291.764-.82v-3.002h1.911c2.312 0 4.15-1.001 4.15-3.458 0-2.457-1.838-3.422-4.15-3.422H92.2c-.455 0-.782.291-.782.783v9.1c0 .528.327.819.746.819zm2.657-5.187h-1.893v-4.15h1.893c1.474 0 2.62.564 2.62 2.057 0 1.474-1.146 2.093-2.62 2.093zm10.956 5.187c2.821 0 4.26-2.439 4.26-5.497 0-3.039-1.439-5.46-4.26-5.46-2.82 0-4.258 2.421-4.258 5.46 0 3.058 1.437 5.497 4.258 5.497zm0-1.383c-1.801 0-2.711-1.839-2.711-4.114s.91-4.076 2.711-4.076c1.784 0 2.712 1.801 2.712 4.076 0 2.275-.928 4.114-2.712 4.114zm10.174 1.128c3.24 0 4.932-2.239 4.932-5.223 0-3.003-1.692-5.224-4.932-5.224h-2.02c-.455 0-.764.291-.764.783v8.863c0 .51.309.801.764.801h2.02zm-.054-1.365h-1.22v-7.717h1.22c2.457 0 3.44 1.784 3.44 3.859 0 2.074-.983 3.858-3.44 3.858zm12.012 1.62c1.292 0 2.657-.473 3.549-1.51a.81.81 0 00.236-.601c0-.4-.327-.692-.71-.692-.327 0-.491.127-.746.364-.637.692-1.383 1.056-2.33 1.056-1.783 0-2.948-1.493-2.948-4.114 0-2.602 1.165-4.076 2.949-4.076.946 0 1.692.345 2.33 1.037.254.255.418.382.745.382.383 0 .71-.31.71-.691a.81.81 0 00-.236-.601c-.892-1.037-2.257-1.51-3.55-1.51-2.784 0-4.495 2.147-4.495 5.46 0 3.33 1.711 5.496 4.496 5.496zm13.559 0c.418 0 .746-.291.746-.82v-6.114c0-2.494-1.274-4.023-3.677-4.023-2.402 0-3.676 1.53-3.676 4.023v6.115c0 .528.328.819.764.819.419 0 .747-.291.747-.82v-2.875h4.331v2.876c0 .528.328.819.765.819zm-.765-5.042h-4.331v-1.729c0-1.801.618-2.82 2.165-2.82 1.566 0 2.166 1.019 2.166 2.82v1.73zm8.682 5.042c2.256 0 4.131-1.074 4.131-3.203 0-1.966-1.583-2.567-3.931-3.149-1.329-.328-2.512-.692-2.512-1.747 0-.856.82-1.456 2.166-1.456.91 0 1.674.273 2.366.728.273.182.473.31.764.31.4 0 .674-.31.674-.71 0-.383-.219-.601-.6-.838-.783-.564-1.948-.892-3.15-.892-2.056 0-3.785 1.056-3.785 2.876 0 1.911 1.51 2.657 3.786 3.185 1.62.382 2.657.783 2.657 1.802 0 1.11-1.183 1.692-2.53 1.692-.928 0-1.747-.273-2.402-.728-.4-.29-.62-.436-.947-.436-.382 0-.71.29-.71.673 0 .455.31.728.82 1.056.764.473 1.856.837 3.203.837zm10.992 0c.437 0 .765-.291.765-.82V143.8c.71.018 2.311.073 2.985.073.546 0 .837-.31.837-.728 0-.419-.291-.692-.837-.692h-7.48c-.547 0-.838.273-.838.692 0 .418.273.728.837.728.674 0 2.294-.055 2.985-.073v8.536c0 .528.31.819.746.819z" fill="#A6AAAE" fill-rule="nonzero"/><path d="M77.848 121.973c.605 0 .897-.37 1.111-.897l3.704-8.967c.156-.35.215-.604.215-.897 0-.585-.39-1.072-1.053-1.072-.507 0-.897.312-1.17.994l-2.807 7.31-2.807-7.31c-.273-.682-.663-.994-1.17-.994-.662 0-1.052.487-1.052 1.072 0 .293.058.546.214.897l3.704 8.967c.214.527.507.897 1.111.897zm14.796 0c.604 0 1.072-.41 1.072-1.17v-6.296c0-2.749-1.56-4.367-4.171-4.367-2.593 0-4.172 1.618-4.172 4.367v6.296c0 .76.487 1.17 1.092 1.17.604 0 1.072-.41 1.072-1.17v-2.612h4.015v2.612c0 .76.488 1.17 1.092 1.17zm-1.092-5.731h-4.015v-1.326c0-1.735.487-2.788 2.008-2.788 1.56 0 2.007 1.053 2.007 2.788v1.326zm12.964 5.73c.624 0 1.072-.408 1.072-1.013 0-.41-.156-.682-.41-1.033l-2.007-2.749c1.735-.584 2.417-1.852 2.417-3.255 0-2.222-1.657-3.509-4.542-3.509h-2.69c-.624 0-1.092.41-1.092 1.15v9.24c0 .76.468 1.17 1.072 1.17.605 0 1.092-.41 1.092-1.17v-3.294h1.365l2.573 3.684c.331.468.682.78 1.15.78zm-3.372-6.315h-1.716v-3.295h1.794c1.286 0 2.124.546 2.124 1.657 0 1.092-.896 1.638-2.202 1.638zM115.9 121.7c.799 0 1.247-.37 1.247-1.014 0-.604-.41-1.013-1.247-1.013-.488 0-1.365.058-1.891.078v-7.389c.526.02 1.403.078 1.89.078.839 0 1.248-.39 1.248-1.013 0-.644-.448-1.014-1.247-1.014h-5.946c-.8 0-1.248.37-1.248 1.014 0 .623.41 1.013 1.248 1.013.487 0 1.364-.058 1.89-.078v7.389c-.526-.02-1.403-.078-1.89-.078-.838 0-1.248.409-1.248 1.013 0 .644.449 1.014 1.248 1.014h5.946zm11.832.273c.605 0 1.073-.41 1.073-1.17v-6.296c0-2.749-1.56-4.367-4.172-4.367-2.593 0-4.172 1.618-4.172 4.367v6.296c0 .76.487 1.17 1.092 1.17.604 0 1.072-.41 1.072-1.17v-2.612h4.016v2.612c0 .76.487 1.17 1.091 1.17zm-1.091-5.731h-4.016v-1.326c0-1.735.487-2.788 2.008-2.788 1.56 0 2.008 1.053 2.008 2.788v1.326zm12.846 5.73c.605 0 1.033-.408 1.033-1.169v-9.493c0-.76-.487-1.17-1.091-1.17-.605 0-1.072.41-1.072 1.17v6.355l-3.958-6.59c-.331-.545-.604-.935-1.228-.935-.604 0-1.033.429-1.033 1.19v9.473c0 .76.487 1.17 1.092 1.17.604 0 1.072-.41 1.072-1.17v-6.257l3.957 6.491c.332.546.604.936 1.228.936zm8.85 0c1.443 0 3.022-.564 3.88-1.54.253-.272.312-.486.312-.779 0-.565-.449-1.014-1.014-1.014-.429 0-.643.156-1.033.488-.585.507-1.209.858-2.105.858-1.716 0-2.808-1.521-2.808-3.938 0-2.418 1.092-3.919 2.808-3.919.896 0 1.52.351 2.105.858.39.332.604.488 1.033.488.565 0 1.014-.449 1.014-1.014 0-.293-.059-.507-.312-.78-.858-.975-2.437-1.54-3.88-1.54-3.08 0-5.01 2.34-5.01 5.907s1.93 5.926 5.01 5.926zm14.465-.272c.8 0 1.248-.37 1.248-1.014 0-.604-.41-1.013-1.248-1.013-1.092 0-3.665.058-4.893.078v-2.808l.847.014.592.008c.79.01 1.556.017 2.012.017.838 0 1.228-.39 1.228-.994 0-.624-.39-1.013-1.228-1.013-.741 0-2.32.039-3.45.058v-2.67c1.188.019 3.8.077 4.892.077.838 0 1.248-.39 1.248-1.013 0-.644-.449-1.014-1.248-1.014h-5.965c-.624 0-1.092.41-1.092 1.15v8.987c0 .74.468 1.15 1.092 1.15h5.965z" fill="#EFEFEF" fill-rule="nonzero"/></g></svg>