<?xml version="1.0" encoding="UTF-8"?>
<svg width="165px" height="154px" viewBox="0 0 165 154" version="1.1" xmlns="http://www.w3.org/2000/svg" xmlns:xlink="http://www.w3.org/1999/xlink">
    <title>Slice Copy</title>
    <g id="Page-1-Copy-2" stroke="none" stroke-width="1" fill="none" fill-rule="evenodd">
        <g id="Group-2-Copy" transform="translate(0.000000, -1.000000)">
            <g id="Group" transform="translate(0.100000, 0.000000)">
                <g id="Group-4" transform="translate(120.299413, 56.100000) rotate(4.000000) translate(-120.299413, -56.100000) translate(78.799413, 14.100000)">
                    <path d="M62.0545889,-0.890402058 C69.4510394,-0.890402058 72.1206569,-0.0888051075 74.8213312,1.3555313 C77.5906414,2.83657459 79.7640122,5.00994544 81.2450555,7.77925563 C82.6893919,10.4799299 83.4909889,13.1495475 83.4909889,20.5459979 L83.4909889,20.5459979 L83.4909889,62.7540021 C83.4909889,70.1504525 82.6893919,72.8200701 81.2450555,75.5207444 C79.7640122,78.2900546 77.5906414,80.4634254 74.8213312,81.9444687 C72.1206569,83.3888051 69.4510394,84.1904021 62.0545889,84.1904021 L62.0545889,84.1904021 L19.973775,84.1904021 C12.5773245,84.1904021 9.90770693,83.3888051 7.20703266,81.9444687 C4.43772247,80.4634254 2.26435162,78.2900546 0.783308327,75.5207444 C0.0628308965,74.1735687 -0.492658611,72.831544 -0.873057855,70.9325539 C0.394855473,69.082786 1.2736123,67.8805714 1.98862522,66.541569 C3.63313239,63.4619056 4.20331455,60.4847136 4.23148225,54.25691 L4.23148225,54.25691 L4.23257197,11.5822142 C4.23257197,8.53585707 4.11076157,6.23707255 3.81193355,4.33306177 C5.02629534,2.69393584 6.06594407,1.96579215 7.20703266,1.3555313 C9.90770693,-0.0888051075 12.5773245,-0.890402058 19.973775,-0.890402058 L19.973775,-0.890402058 Z" id="Combined-Shape-Copy" stroke="#000000" stroke-width="1.78080412" fill="#1D1E1F"></path>
                    <path d="M51.8005868,45.8375783 L42.939456,45.8375783 C43.4050227,59.524327 42.2239074,72.0117624 39.3961099,83.2998845 L19.9757545,83.299445 C12.8314634,83.299445 10.2407708,82.555576 7.62892475,81.1587454 C5.01707871,79.7619149 2.96728665,77.7121228 1.57045611,75.1002768 C0.888176262,73.8245244 0.361681265,72.5538188 0.0015650291,70.7550413 C1.08672786,69.6442113 2.01191816,68.3747244 2.76447561,66.9605345 C4.50106968,63.6971641 5.10527228,60.5527156 5.10527228,53.7664568 L5.10527228,53.7664568 L5.10527228,11.5821279 C5.10527228,8.48555252 4.979471,6.14724001 4.677687,4.20989605 C5.55921747,3.41158553 6.54573619,2.71998457 7.62892475,2.14068899 C10.1851996,0.773578243 12.7212116,0.0319390002 19.525876,0.000998765673 L43.2595683,0.00195933403 C48.9535806,17.5331664 51.8005868,32.8117061 51.8005868,45.8375783 Z M28.7145868,10.356842 C27.7354138,10.356842 26.9416374,11.1506185 26.9416374,12.1297914 L26.9416374,12.1297914 L26.9416374,18.3838285 C26.9416374,19.3630015 27.7354138,20.1567779 28.7145868,20.1567779 C29.6937597,20.1567779 30.4875362,19.3630015 30.4875362,18.3838285 L30.4875362,18.3838285 L30.4875362,12.1297914 C30.4875362,11.1506185 29.6937597,10.356842 28.7145868,10.356842 Z" id="Combined-Shape-Copy-29" fill="#EFEFEF"></path>
                </g>
                <g id="Group-3" transform="translate(46.000000, 46.592901) rotate(-5.000000) translate(-46.000000, -46.592901) translate(4.000000, 4.092901)">
                    <path d="M62.7540021,0.016696711 C70.1504525,0.016696711 72.8200701,0.818293662 75.5207444,2.26263007 C78.2900546,3.74367336 80.4634254,5.91704421 81.9444687,8.6863544 C83.3888051,11.3870287 84.1904021,14.0566462 84.1904021,21.4530967 L84.1904021,21.4530967 L84.1904021,63.6611008 C84.1904021,71.0575513 83.3888051,73.7271689 81.9444687,76.4278431 C80.4634254,79.1971533 78.2900546,81.3705242 75.5207444,82.8515675 C72.8200701,84.2959039 70.1504525,85.0975008 62.7540021,85.0975008 L62.7540021,85.0975008 L20.5459979,85.0975008 C13.1495475,85.0975008 10.4799299,84.2959039 7.77925563,82.8515675 C5.00994544,81.3705242 2.83657459,79.1971533 1.3555313,76.4278431 C-0.0888051075,73.7271689 -0.890402058,71.0575513 -0.890402058,63.6611008 L-0.890402058,63.6611008 L-0.890402058,21.4530967 C-0.890402058,14.0566462 -0.0888051075,11.3870287 1.3555313,8.6863544 C2.83657459,5.91704421 5.00994544,3.74367336 7.77925563,2.26263007 C10.4799299,0.818293662 13.1495475,0.016696711 20.5459979,0.016696711 L20.5459979,0.016696711 Z" id="Rectangle-Copy-6" stroke="#0C1E24" stroke-width="1.78080412" fill="#1D1E1F"></path>
                    <path d="M62.7540021,0.907272965 C69.8982932,0.907272965 72.4889857,1.651142 75.1008318,3.04797255 C77.7126778,4.44480309 79.7624699,6.49459515 81.1593004,9.10644119 C82.556131,11.7182872 83.3,14.3089798 83.3,21.4532709 L83.3,63.6603029 C83.3,70.804594 82.556131,73.3952866 81.1593004,76.0071326 C79.7624699,78.6189786 77.7126778,80.6687707 75.1008318,82.0656012 C72.4889857,83.4624318 69.8982932,84.2063008 62.7540021,84.2063008 L44.5390686,84.2069994 C41.7012384,73.1947284 40.4823967,60.7856595 40.8825434,46.9797928 L40.8825434,46.9797928 L30.1,46.9797928 C30.1,33.0432036 33.786105,17.3832726 41.1583151,-4.64073224e-14 L40.775,0.907 L62.7540021,0.907272965 Z M55.8738019,11.3113238 C54.8867458,11.3113238 54.0865786,12.1114909 54.0865786,13.0985471 L54.0865786,13.0985471 L54.0865786,19.3239861 C54.0865786,20.3110423 54.8867458,21.1112094 55.8738019,21.1112094 C56.8608581,21.1112094 57.6610252,20.3110423 57.6610252,19.3239861 L57.6610252,19.3239861 L57.6610252,13.0985471 C57.6610252,12.1114909 56.8608581,11.3113238 55.8738019,11.3113238 Z" id="Combined-Shape-Copy-30" fill="#EFEFEF"></path>
                </g>
            </g>
            <path d="M8.16010702,118.372916 C9.60266373,118.372916 11.1816785,117.80759 12.0394149,116.832889 C12.292837,116.559973 12.3513191,116.345539 12.3513191,116.053129 C12.3513191,115.487803 11.9029569,115.03944 11.3376306,115.03944 C10.9087624,115.03944 10.6943283,115.195393 10.3044481,115.526791 C9.71962778,116.033635 9.09581948,116.384527 8.19909504,116.384527 C6.4836222,116.384527 5.39195766,114.863994 5.39195766,112.446737 C5.39195766,110.02948 6.4836222,108.528441 8.19909504,108.528441 C9.09581948,108.528441 9.71962778,108.879333 10.3044481,109.386178 C10.6943283,109.717576 10.9087624,109.873528 11.3376306,109.873528 C11.9029569,109.873528 12.3513191,109.425166 12.3513191,108.859839 C12.3513191,108.567429 12.292837,108.352995 12.0394149,108.080079 C11.1816785,107.105379 9.60266373,106.540052 8.16010702,106.540052 C5.08005351,106.540052 3.15014656,108.879333 3.15014656,112.446737 C3.15014656,116.014141 5.08005351,118.372916 8.16010702,118.372916 Z M19.5251146,118.372916 C22.7416262,118.372916 24.3206409,115.702237 24.3206409,112.446737 C24.3206409,109.191238 22.7416262,106.540052 19.5251146,106.540052 C16.328097,106.540052 14.7490822,109.191238 14.7490822,112.446737 C14.7490822,115.702237 16.328097,118.372916 19.5251146,118.372916 Z M19.5251146,116.384527 C17.7316657,116.384527 16.9908933,114.513102 16.9908933,112.446737 C16.9908933,110.380372 17.7316657,108.528441 19.5251146,108.528441 C21.3185635,108.528441 22.0788298,110.380372 22.0788298,112.446737 C22.0788298,114.513102 21.3185635,116.384527 19.5251146,116.384527 Z M34.3990439,118.372916 C35.0033582,118.372916 35.4322264,117.963542 35.4322264,117.203276 L35.4322264,107.709693 C35.4322264,106.949427 34.9448761,106.540052 34.3405619,106.540052 C33.7362476,106.540052 33.2683913,106.949427 33.2683913,107.709693 L33.2683913,114.06474 L29.3111074,107.475765 C28.9797092,106.929933 28.7067931,106.540052 28.0829848,106.540052 C27.4786705,106.540052 27.0498023,106.968921 27.0498023,107.729187 L27.0498023,117.203276 C27.0498023,117.963542 27.5371525,118.372916 28.1414668,118.372916 C28.7457811,118.372916 29.2136373,117.963542 29.2136373,117.203276 L29.2136373,110.945698 L33.1709213,117.437204 C33.5023194,117.983036 33.7752356,118.372916 34.3990439,118.372916 Z M42.9374201,118.372916 C43.5417344,118.372916 44.0290846,117.963542 44.0290846,117.203276 L44.0290846,108.762369 C44.789351,108.781863 46.0174736,108.840345 46.7582459,108.840345 C47.5769943,108.840345 48.0058626,108.450465 48.0058626,107.826657 C48.0058626,107.183355 47.5380063,106.812968 46.7582459,106.812968 L39.1165942,106.812968 C38.3368338,106.812968 37.8884716,107.183355 37.8884716,107.826657 C37.8884716,108.450465 38.2978458,108.840345 39.1165942,108.840345 C39.8573666,108.840345 41.1049832,108.781863 41.8652495,108.762369 L41.8652495,117.203276 C41.8652495,117.963542 42.3331058,118.372916 42.9374201,118.372916 Z M57.9088194,118.372916 C58.5326277,118.372916 58.9809899,117.963542 58.9809899,117.359228 C58.9809899,116.949853 58.8250379,116.676937 58.5716157,116.326045 L56.5637327,113.57739 C58.2986996,112.992569 58.9809899,111.725459 58.9809899,110.32189 C58.9809899,108.099573 57.3239991,106.812968 54.4388857,106.812968 L51.7487124,106.812968 C51.1249041,106.812968 50.6570479,107.222343 50.6570479,107.963115 L50.6570479,117.203276 C50.6570479,117.963542 51.1249041,118.372916 51.7292184,118.372916 C52.3335327,118.372916 52.8208829,117.963542 52.8208829,117.203276 L52.8208829,113.908788 L54.1854636,113.908788 L56.7586728,117.593156 C57.090071,118.061012 57.4409632,118.372916 57.9088194,118.372916 Z M54.5363558,112.056857 L52.8208829,112.056857 L52.8208829,108.762369 L54.6143318,108.762369 C55.9009364,108.762369 56.7391788,109.308202 56.7391788,110.41936 C56.7391788,111.511025 55.8424544,112.056857 54.5363558,112.056857 Z M69.4297791,118.372916 C70.0340933,118.372916 70.5019496,117.963542 70.5019496,117.203276 L70.5019496,110.90671 C70.5019496,108.158055 68.9424288,106.540052 66.3302315,106.540052 C63.7375283,106.540052 62.1585135,108.158055 62.1585135,110.90671 L62.1585135,117.203276 C62.1585135,117.963542 62.6458637,118.372916 63.250178,118.372916 C63.8544923,118.372916 64.3223485,117.963542 64.3223485,117.203276 L64.3223485,114.591078 L68.3381145,114.591078 L68.3381145,117.203276 C68.3381145,117.963542 68.8254648,118.372916 69.4297791,118.372916 Z M68.3381145,112.641677 L64.3223485,112.641677 L64.3223485,111.316085 C64.3223485,109.581118 64.8096988,108.528441 66.3302315,108.528441 C67.8897523,108.528441 68.3381145,109.581118 68.3381145,111.316085 L68.3381145,112.641677 Z" id="CONTRA" fill="#1D1E1F" fill-rule="nonzero"></path>
            <path d="M10.3902,154.1548 C10.8088,154.1548 11.1364,153.8636 11.1364,153.3358 L11.1364,147.2206 C11.1364,144.7272 9.8624,143.1984 7.46,143.1984 C5.0576,143.1984 3.7836,144.7272 3.7836,147.2206 L3.7836,153.3358 C3.7836,153.8636 4.1112,154.1548 4.548,154.1548 C4.9666,154.1548 5.2942,153.8636 5.2942,153.3358 L5.2942,150.4602 L9.6258,150.4602 L9.6258,153.3358 C9.6258,153.8636 9.9534,154.1548 10.3902,154.1548 Z M9.6258,149.1134 L5.2942,149.1134 L5.2942,147.3844 C5.2942,145.5826 5.913,144.5634 7.46,144.5634 C9.0252,144.5634 9.6258,145.5826 9.6258,147.3844 L9.6258,149.1134 Z M29.2454,154.1548 C31.5022,154.1548 33.3768,153.081 33.3768,150.9516 C33.3768,148.986 31.7934,148.3854 29.4456,147.803 C28.117,147.4754 26.934,147.1114 26.934,146.0558 C26.934,145.2004 27.753,144.5998 29.0998,144.5998 C30.0098,144.5998 30.7742,144.8728 31.4658,145.3278 C31.7388,145.5098 31.939,145.6372 32.2302,145.6372 C32.6306,145.6372 32.9036,145.3278 32.9036,144.9274 C32.9036,144.5452 32.6852,144.3268 32.303,144.0902 C31.5204,143.526 30.3556,143.1984 29.1544,143.1984 C27.0978,143.1984 25.3688,144.254 25.3688,146.074 C25.3688,147.985 26.8794,148.7312 29.1544,149.259 C30.7742,149.6412 31.8116,150.0416 31.8116,151.0608 C31.8116,152.171 30.6286,152.7534 29.2818,152.7534 C28.3536,152.7534 27.5346,152.4804 26.8794,152.0254 C26.479,151.7342 26.2606,151.5886 25.933,151.5886 C25.5508,151.5886 25.2232,151.8798 25.2232,152.262 C25.2232,152.717 25.5326,152.99 26.0422,153.3176 C26.8066,153.7908 27.8986,154.1548 29.2454,154.1548 Z M42.6224,154.1548 C43.0046,154.1548 43.2776,153.8818 43.3504,153.445 L44.9884,144.4724 L45.0328889,144.1084 C45.0389556,144.047733 45.043,143.987067 45.043,143.9264 C45.043,143.5442 44.7882,143.1984 44.315,143.1984 C43.8782,143.1984 43.6234,143.526 43.5324,144.072 L42.3494,151.2428 L40.9116,146.8748 C40.8024,146.5108 40.584,146.2924 40.2382,146.2924 C39.8924,146.2924 39.674,146.5108 39.5648,146.8748 L38.127,151.2428 L36.944,144.072 C36.853,143.526 36.5982,143.1984 36.1614,143.1984 C35.6882,143.1984 35.4334,143.5442 35.4334,143.9264 C35.4334,144.1084 35.4698,144.2904 35.488,144.4724 L37.126,153.445 C37.1988,153.8818 37.4718,154.1548 37.854,154.1548 C38.2544,154.1548 38.5092,153.9 38.6366,153.536 L40.2382,148.7312 L41.8398,153.536 C41.9672,153.9 42.222,154.1548 42.6224,154.1548 Z M54.0884,153.9 C54.6344,153.9 54.9256,153.6088 54.9256,153.1902 C54.9256,152.7716 54.6526,152.4804 54.0884,152.4804 C53.5788,152.4804 52.505,152.535 51.9226,152.5532 L51.9226,144.8 C52.505,144.8182 53.5788,144.8728 54.0884,144.8728 C54.6526,144.8728 54.9256,144.5634 54.9256,144.1448 C54.9256,143.7262 54.6344,143.4532 54.0884,143.4532 L48.228,143.4532 C47.682,143.4532 47.3908,143.7262 47.3908,144.1448 C47.3908,144.5634 47.6638,144.8728 48.228,144.8728 C48.7376,144.8728 49.8478,144.8182 50.412,144.8 L50.412,152.5532 C49.8478,152.535 48.7376,152.4804 48.228,152.4804 C47.6638,152.4804 47.3908,152.7716 47.3908,153.1902 C47.3908,153.6088 47.682,153.9 48.228,153.9 L54.0884,153.9 Z M59.3664,154.1548 C59.8032,154.1548 60.1308,153.8636 60.1308,153.3358 L60.1308,149.8596 C60.4519765,149.863882 60.8003585,149.868165 61.1538971,149.87221 L61.6853163,149.87807 C62.4799781,149.886505 63.2449337,149.89314 63.7290322,149.895274 L64.0074,149.896 L64.0074,149.896 C64.5716,149.896 64.8446,149.6048 64.8446,149.1862 C64.8446,148.7858 64.5716,148.4946 64.0074,148.4946 C63.3522,148.4946 61.4958,148.531 60.1308,148.5492 L60.1308,144.8 C61.4958,144.8182 64.4442,144.8728 65.3906,144.8728 C65.9548,144.8728 66.2278,144.5634 66.2278,144.1448 C66.2278,143.7262 65.9366,143.4532 65.3906,143.4532 L59.4028,143.4532 C58.9478,143.4532 58.6202,143.7444 58.6202,144.2358 L58.6202,153.3358 C58.6202,153.8636 58.9478,154.1548 59.3664,154.1548 Z M72.9982,154.1548 C73.435,154.1548 73.7626,153.8636 73.7626,153.3358 L73.7626,144.8 C74.4724,144.8182 76.074,144.8728 76.7474,144.8728 C77.2934,144.8728 77.5846,144.5634 77.5846,144.1448 C77.5846,143.7262 77.2934,143.4532 76.7474,143.4532 L69.2672,143.4532 C68.7212,143.4532 68.43,143.7262 68.43,144.1448 C68.43,144.5634 68.703,144.8728 69.2672,144.8728 C69.9406,144.8728 71.5604,144.8182 72.252,144.8 L72.252,153.3358 C72.252,153.8636 72.5614,154.1548 72.9982,154.1548 Z M92.1628,154.1548 C92.5996,154.1548 92.9272,153.8636 92.9272,153.3358 L92.9272,150.3328 L94.8382,150.3328 C97.1496,150.3328 98.9878,149.3318 98.9878,146.8748 C98.9878,144.4178 97.1496,143.4532 94.8382,143.4532 L92.1992,143.4532 C91.7442,143.4532 91.4166,143.7444 91.4166,144.2358 L91.4166,153.3358 C91.4166,153.8636 91.7442,154.1548 92.1628,154.1548 Z M94.82,148.9678 L92.9272,148.9678 L92.9272,144.8182 L94.82,144.8182 C96.2942,144.8182 97.4408,145.3824 97.4408,146.8748 C97.4408,148.349 96.2942,148.9678 94.82,148.9678 Z M105.7764,154.1548 C108.5974,154.1548 110.0352,151.716 110.0352,148.6584 C110.0352,145.619 108.5974,143.1984 105.7764,143.1984 C102.9554,143.1984 101.5176,145.619 101.5176,148.6584 C101.5176,151.716 102.9554,154.1548 105.7764,154.1548 Z M105.7764,152.7716 C103.9746,152.7716 103.0646,150.9334 103.0646,148.6584 C103.0646,146.3834 103.9746,144.5816 105.7764,144.5816 C107.56,144.5816 108.4882,146.3834 108.4882,148.6584 C108.4882,150.9334 107.56,152.7716 105.7764,152.7716 Z M115.9502,153.9 C119.1898,153.9 120.8824,151.6614 120.8824,148.6766 C120.8824,145.6736 119.1898,143.4532 115.9502,143.4532 L113.93,143.4532 C113.475,143.4532 113.1656,143.7444 113.1656,144.2358 L113.1656,153.0992 C113.1656,153.6088 113.475,153.9 113.93,153.9 L115.9502,153.9 Z M115.8956,152.535 L114.6762,152.535 L114.6762,144.8182 L115.8956,144.8182 C118.3526,144.8182 119.3354,146.6018 119.3354,148.6766 C119.3354,150.7514 118.3526,152.535 115.8956,152.535 Z M127.9076,154.1548 C129.1998,154.1548 130.5648,153.6816 131.4566,152.6442 C131.6204,152.4622 131.6932,152.2984 131.6932,152.0436 C131.6932,151.6432 131.3656,151.352 130.9834,151.352 C130.6558,151.352 130.492,151.4794 130.2372,151.716 C129.6002,152.4076 128.854,152.7716 127.9076,152.7716 C126.124,152.7716 124.9592,151.2792 124.9592,148.6584 C124.9592,146.0558 126.124,144.5816 127.9076,144.5816 C128.854,144.5816 129.6002,144.9274 130.2372,145.619 C130.492,145.8738 130.6558,146.0012 130.9834,146.0012 C131.3656,146.0012 131.6932,145.6918 131.6932,145.3096 C131.6932,145.0548 131.6204,144.891 131.4566,144.709 C130.5648,143.6716 129.1998,143.1984 127.9076,143.1984 C125.123,143.1984 123.4122,145.346 123.4122,148.6584 C123.4122,151.989 125.123,154.1548 127.9076,154.1548 Z M141.4666,154.1548 C141.8852,154.1548 142.2128,153.8636 142.2128,153.3358 L142.2128,147.2206 C142.2128,144.7272 140.9388,143.1984 138.5364,143.1984 C136.134,143.1984 134.86,144.7272 134.86,147.2206 L134.86,153.3358 C134.86,153.8636 135.1876,154.1548 135.6244,154.1548 C136.043,154.1548 136.3706,153.8636 136.3706,153.3358 L136.3706,150.4602 L140.7022,150.4602 L140.7022,153.3358 C140.7022,153.8636 141.0298,154.1548 141.4666,154.1548 Z M140.7022,149.1134 L136.3706,149.1134 L136.3706,147.3844 C136.3706,145.5826 136.9894,144.5634 138.5364,144.5634 C140.1016,144.5634 140.7022,145.5826 140.7022,147.3844 L140.7022,149.1134 Z M149.3836,154.1548 C151.6404,154.1548 153.515,153.081 153.515,150.9516 C153.515,148.986 151.9316,148.3854 149.5838,147.803 C148.2552,147.4754 147.0722,147.1114 147.0722,146.0558 C147.0722,145.2004 147.8912,144.5998 149.238,144.5998 C150.148,144.5998 150.9124,144.8728 151.604,145.3278 C151.877,145.5098 152.0772,145.6372 152.3684,145.6372 C152.7688,145.6372 153.0418,145.3278 153.0418,144.9274 C153.0418,144.5452 152.8234,144.3268 152.4412,144.0902 C151.6586,143.526 150.4938,143.1984 149.2926,143.1984 C147.236,143.1984 145.507,144.254 145.507,146.074 C145.507,147.985 147.0176,148.7312 149.2926,149.259 C150.9124,149.6412 151.9498,150.0416 151.9498,151.0608 C151.9498,152.171 150.7668,152.7534 149.42,152.7534 C148.4918,152.7534 147.6728,152.4804 147.0176,152.0254 C146.6172,151.7342 146.3988,151.5886 146.0712,151.5886 C145.689,151.5886 145.3614,151.8798 145.3614,152.262 C145.3614,152.717 145.6708,152.99 146.1804,153.3176 C146.9448,153.7908 148.0368,154.1548 149.3836,154.1548 Z M160.3764,154.1548 C160.8132,154.1548 161.1408,153.8636 161.1408,153.3358 L161.1408,144.8 C161.8506,144.8182 163.4522,144.8728 164.1256,144.8728 C164.6716,144.8728 164.9628,144.5634 164.9628,144.1448 C164.9628,143.7262 164.6716,143.4532 164.1256,143.4532 L156.6454,143.4532 C156.0994,143.4532 155.8082,143.7262 155.8082,144.1448 C155.8082,144.5634 156.0812,144.8728 156.6454,144.8728 C157.3188,144.8728 158.9386,144.8182 159.6302,144.8 L159.6302,153.3358 C159.6302,153.8636 159.9396,154.1548 160.3764,154.1548 Z" id="ASWIFTPODCAST" fill="#595C5E" fill-rule="nonzero"></path>
            <path d="M77.8482029,122.972916 C78.4525172,122.972916 78.7449273,122.60253 78.9593614,122.076192 L82.6632232,113.108947 C82.8191753,112.758055 82.8776573,112.504633 82.8776573,112.212223 C82.8776573,111.627403 82.4877771,111.140052 81.8249808,111.140052 C81.3181366,111.140052 80.9282564,111.451956 80.6553402,112.134247 L77.8482029,119.4445 L75.0410655,112.134247 C74.7681494,111.451956 74.3782692,111.140052 73.8714249,111.140052 C73.2086286,111.140052 72.8187484,111.627403 72.8187484,112.212223 C72.8187484,112.504633 72.8772304,112.758055 73.0331825,113.108947 L76.7370443,122.076192 C76.9514784,122.60253 77.2438886,122.972916 77.8482029,122.972916 Z M92.6441561,122.972916 C93.2484704,122.972916 93.7163266,122.563542 93.7163266,121.803276 L93.7163266,115.50671 C93.7163266,112.758055 92.1568059,111.140052 89.5446086,111.140052 C86.9519053,111.140052 85.3728906,112.758055 85.3728906,115.50671 L85.3728906,121.803276 C85.3728906,122.563542 85.8602408,122.972916 86.4645551,122.972916 C87.0688694,122.972916 87.5367256,122.563542 87.5367256,121.803276 L87.5367256,119.191078 L91.5524916,119.191078 L91.5524916,121.803276 C91.5524916,122.563542 92.0398418,122.972916 92.6441561,122.972916 Z M91.5524916,117.241677 L87.5367256,117.241677 L87.5367256,115.916085 C87.5367256,114.181118 88.0240759,113.128441 89.5446086,113.128441 C91.1041294,113.128441 91.5524916,114.181118 91.5524916,115.916085 L91.5524916,117.241677 Z M104.516008,122.972916 C105.139816,122.972916 105.588178,122.563542 105.588178,121.959228 C105.588178,121.549853 105.432226,121.276937 105.178804,120.926045 L103.170921,118.17739 C104.905888,117.592569 105.588178,116.325459 105.588178,114.92189 C105.588178,112.699573 103.931188,111.412968 101.046074,111.412968 L98.3559009,111.412968 C97.7320926,111.412968 97.2642364,111.822343 97.2642364,112.563115 L97.2642364,121.803276 C97.2642364,122.563542 97.7320926,122.972916 98.3364069,122.972916 C98.9407212,122.972916 99.4280714,122.563542 99.4280714,121.803276 L99.4280714,118.508788 L100.792652,118.508788 L103.365861,122.193156 C103.69726,122.661012 104.048152,122.972916 104.516008,122.972916 Z M101.143544,116.656857 L99.4280714,116.656857 L99.4280714,113.362369 L101.22152,113.362369 C102.508125,113.362369 103.346367,113.908202 103.346367,115.01936 C103.346367,116.111025 102.449643,116.656857 101.143544,116.656857 Z M115.90051,122.7 C116.699764,122.7 117.148126,122.329614 117.148126,121.686312 C117.148126,121.081997 116.738752,120.672623 115.90051,120.672623 C115.413159,120.672623 114.535929,120.731105 114.009591,120.750599 L114.009591,113.362369 C114.535929,113.381863 115.413159,113.440345 115.90051,113.440345 C116.738752,113.440345 117.148126,113.050465 117.148126,112.426657 C117.148126,111.783355 116.699764,111.412968 115.90051,111.412968 L109.954837,111.412968 C109.155582,111.412968 108.70722,111.783355 108.70722,112.426657 C108.70722,113.050465 109.116594,113.440345 109.954837,113.440345 C110.442187,113.440345 111.319417,113.381863 111.845756,113.362369 L111.845756,120.750599 C111.319417,120.731105 110.442187,120.672623 109.954837,120.672623 C109.116594,120.672623 108.70722,121.081997 108.70722,121.686312 C108.70722,122.329614 109.155582,122.7 109.954837,122.7 L115.90051,122.7 Z M127.733373,122.972916 C128.337688,122.972916 128.805544,122.563542 128.805544,121.803276 L128.805544,115.50671 C128.805544,112.758055 127.246023,111.140052 124.633826,111.140052 C122.041123,111.140052 120.462108,112.758055 120.462108,115.50671 L120.462108,121.803276 C120.462108,122.563542 120.949458,122.972916 121.553772,122.972916 C122.158087,122.972916 122.625943,122.563542 122.625943,121.803276 L122.625943,119.191078 L126.641709,119.191078 L126.641709,121.803276 C126.641709,122.563542 127.129059,122.972916 127.733373,122.972916 Z M126.641709,117.241677 L122.625943,117.241677 L122.625943,115.916085 C122.625943,114.181118 123.113293,113.128441 124.633826,113.128441 C126.193347,113.128441 126.641709,114.181118 126.641709,115.916085 L126.641709,117.241677 Z M139.488261,122.972916 C140.092575,122.972916 140.521444,122.563542 140.521444,121.803276 L140.521444,112.309693 C140.521444,111.549427 140.034093,111.140052 139.429779,111.140052 C138.825465,111.140052 138.357609,111.549427 138.357609,112.309693 L138.357609,118.66474 L134.400325,112.075765 C134.068926,111.529933 133.79601,111.140052 133.172202,111.140052 C132.567888,111.140052 132.139019,111.568921 132.139019,112.329187 L132.139019,121.803276 C132.139019,122.563542 132.62637,122.972916 133.230684,122.972916 C133.834998,122.972916 134.302855,122.563542 134.302855,121.803276 L134.302855,115.545698 L138.260138,122.037204 C138.591537,122.583036 138.864453,122.972916 139.488261,122.972916 Z M148.338541,122.972916 C149.781098,122.972916 151.360113,122.40759 152.217849,121.432889 C152.471271,121.159973 152.529753,120.945539 152.529753,120.653129 C152.529753,120.087803 152.081391,119.63944 151.516065,119.63944 C151.087197,119.63944 150.872763,119.795393 150.482882,120.126791 C149.898062,120.633635 149.274254,120.984527 148.377529,120.984527 C146.662057,120.984527 145.570392,119.463994 145.570392,117.046737 C145.570392,114.62948 146.662057,113.128441 148.377529,113.128441 C149.274254,113.128441 149.898062,113.479333 150.482882,113.986178 C150.872763,114.317576 151.087197,114.473528 151.516065,114.473528 C152.081391,114.473528 152.529753,114.025166 152.529753,113.459839 C152.529753,113.167429 152.471271,112.952995 152.217849,112.680079 C151.360113,111.705379 149.781098,111.140052 148.338541,111.140052 C145.258488,111.140052 143.328581,113.479333 143.328581,117.046737 C143.328581,120.614141 145.258488,122.972916 148.338541,122.972916 Z M162.803097,122.7 C163.602351,122.7 164.050713,122.329614 164.050713,121.686312 C164.050713,121.081997 163.641339,120.672623 162.803097,120.672623 C161.711432,120.672623 159.138223,120.731105 157.9101,120.750599 L157.9101,117.943462 C158.175519,117.94796 158.462738,117.952459 158.756665,117.956718 L159.348992,117.964846 C160.138761,117.975067 160.90468,117.98245 161.36054,117.98245 C162.198782,117.98245 162.588662,117.592569 162.588662,116.988255 C162.588662,116.364447 162.198782,115.974567 161.36054,115.974567 C160.619767,115.974567 159.040753,116.013555 157.9101,116.033049 L157.9101,113.362369 C159.099235,113.381863 161.711432,113.440345 162.803097,113.440345 C163.641339,113.440345 164.050713,113.050465 164.050713,112.426657 C164.050713,111.783355 163.602351,111.412968 162.803097,111.412968 L156.83793,111.412968 C156.214121,111.412968 155.746265,111.822343 155.746265,112.563115 L155.746265,121.549853 C155.746265,122.290626 156.214121,122.7 156.83793,122.7 L162.803097,122.7 Z" id="VARIANCE" fill="#1D1E1F" fill-rule="nonzero"></path>
        </g>
    </g>
</svg>